<?xml version="1.0" encoding="UTF-8"?>
<svg width="700pt" height="700pt" version="1.1" viewBox="0 0 700 700" xmlns="http://www.w3.org/2000/svg" xmlns:xlink="http://www.w3.org/1999/xlink">
 <defs>
  <symbol id="u" overflow="visible">
   <path d="m15.188-0.90625c-0.78125 0.40625-1.6016 0.71484-2.4531 0.92188-0.84375 0.20703-1.7305 0.3125-2.6562 0.3125-2.75 0-4.9336-0.76953-6.5469-2.3125-1.6055-1.5391-2.4062-3.6289-2.4062-6.2656 0-2.6328 0.80078-4.7227 2.4062-6.2656 1.6133-1.5391 3.7969-2.3125 6.5469-2.3125 0.92578 0 1.8125 0.10547 2.6562 0.3125 0.85156 0.21094 1.6719 0.51562 2.4531 0.92188v3.4219c-0.79297-0.53906-1.5742-0.9375-2.3438-1.1875-0.76172-0.25-1.5703-0.375-2.4219-0.375-1.5234 0-2.7188 0.49219-3.5938 1.4688-0.86719 0.96875-1.2969 2.3086-1.2969 4.0156 0 1.7109 0.42969 3.0547 1.2969 4.0312 0.875 0.96875 2.0703 1.4531 3.5938 1.4531 0.85156 0 1.6602-0.125 2.4219-0.375 0.76953-0.25 1.5508-0.64453 2.3438-1.1875z"/>
  </symbol>
  <symbol id="e" overflow="visible">
   <path d="m11.109-9.0156c-0.34375-0.16406-0.6875-0.28516-1.0312-0.35938-0.34375-0.082031-0.6875-0.125-1.0312-0.125-1.0234 0-1.8086 0.32812-2.3594 0.98438-0.54297 0.65625-0.8125 1.5898-0.8125 2.7969v5.7188h-3.9688v-12.406h3.9688v2.0469c0.5-0.8125 1.0781-1.4062 1.7344-1.7812 0.66406-0.375 1.4609-0.5625 2.3906-0.5625 0.13281 0 0.27344 0.007813 0.42188 0.015625 0.15625 0.011719 0.38281 0.039062 0.6875 0.078125z"/>
  </symbol>
  <symbol id="b" overflow="visible">
   <path d="m14.281-6.2344v1.125h-9.2656c0.09375 0.9375 0.42578 1.6406 1 2.1094 0.58203 0.46094 1.3906 0.6875 2.4219 0.6875 0.83203 0 1.6875-0.125 2.5625-0.375s1.7695-0.625 2.6875-1.125v3.0625c-0.9375 0.35547-1.875 0.62109-2.8125 0.79688-0.9375 0.1875-1.875 0.28125-2.8125 0.28125-2.2422 0-3.9844-0.56641-5.2344-1.7031-1.2422-1.1445-1.8594-2.75-1.8594-4.8125 0-2.0195 0.60938-3.6094 1.8281-4.7656 1.2266-1.1641 2.9102-1.75 5.0469-1.75 1.9453 0 3.5039 0.58984 4.6719 1.7656 1.1758 1.1797 1.7656 2.7461 1.7656 4.7031zm-4.0781-1.3125c0-0.75-0.21875-1.3516-0.65625-1.8125-0.4375-0.46875-1.0117-0.70312-1.7188-0.70312-0.77344 0-1.3984 0.21875-1.875 0.65625-0.48047 0.42969-0.77734 1.0469-0.89062 1.8594z"/>
  </symbol>
  <symbol id="d" overflow="visible">
   <path d="m7.4688-5.5781c-0.83594 0-1.4609 0.14062-1.875 0.42188-0.41797 0.28125-0.625 0.69531-0.625 1.2344 0 0.5 0.16406 0.89844 0.5 1.1875 0.34375 0.28125 0.8125 0.42188 1.4062 0.42188 0.75 0 1.375-0.26562 1.875-0.79688 0.50781-0.53906 0.76562-1.2109 0.76562-2.0156v-0.45312zm6.0469-1.5v7.0781h-4v-1.8438c-0.53125 0.76172-1.1328 1.3125-1.7969 1.6562-0.65625 0.34375-1.4648 0.51562-2.4219 0.51562-1.2812 0-2.3242-0.375-3.125-1.125-0.80469-0.75-1.2031-1.7227-1.2031-2.9219 0-1.457 0.5-2.5234 1.5-3.2031 1-0.67578 2.5703-1.0156 4.7188-1.0156h2.3281v-0.3125c0-0.625-0.25-1.082-0.75-1.375-0.49219-0.28906-1.2578-0.4375-2.2969-0.4375-0.85547 0-1.6484 0.089844-2.375 0.26562-0.73047 0.16797-1.4062 0.41797-2.0312 0.75v-3.0156c0.84375-0.20703 1.6914-0.36328 2.5469-0.46875 0.86328-0.11328 1.7227-0.17188 2.5781-0.17188 2.2266 0 3.8359 0.44531 4.8281 1.3281 1 0.88672 1.5 2.3203 1.5 4.2969z"/>
  </symbol>
  <symbol id="c" overflow="visible">
   <path d="m6.2344-15.922v3.5156h4.0781v2.8438h-4.0781v5.25c0 0.58594 0.11328 0.98047 0.34375 1.1875 0.22656 0.19922 0.67969 0.29688 1.3594 0.29688h2.0312v2.8281h-3.3906c-1.5625 0-2.6719-0.32031-3.3281-0.96875-0.65625-0.65625-0.98438-1.7695-0.98438-3.3438v-5.25h-1.9688v-2.8438h1.9688v-3.5156z"/>
  </symbol>
  <symbol id="k" overflow="visible">
   <path d="m10.344-10.578v-6.6406h3.9844v17.219h-3.9844v-1.7969c-0.55469 0.73047-1.1562 1.2656-1.8125 1.6094s-1.418 0.51562-2.2812 0.51562c-1.5234 0-2.7773-0.60938-3.7656-1.8281-0.98047-1.2188-1.4688-2.7812-1.4688-4.6875 0-1.9141 0.48828-3.4766 1.4688-4.6875 0.98828-1.2188 2.2422-1.8281 3.7656-1.8281 0.85156 0 1.6094 0.17188 2.2656 0.51562 0.66406 0.34375 1.2734 0.88281 1.8281 1.6094zm-2.6094 8.0156c0.84375 0 1.4883-0.30469 1.9375-0.92188 0.44531-0.625 0.67188-1.5234 0.67188-2.7031 0-1.1758-0.22656-2.0703-0.67188-2.6875-0.44922-0.625-1.0938-0.9375-1.9375-0.9375s-1.4922 0.3125-1.9375 0.9375c-0.44922 0.61719-0.67188 1.5117-0.67188 2.6875 0 1.1797 0.22266 2.0781 0.67188 2.7031 0.44531 0.61719 1.0938 0.92188 1.9375 0.92188z"/>
  </symbol>
  <symbol id="j" overflow="visible">
   <path d="m8.5-2.5625c0.85156 0 1.5-0.30469 1.9375-0.92188 0.44531-0.625 0.67188-1.5234 0.67188-2.7031 0-1.1758-0.22656-2.0703-0.67188-2.6875-0.4375-0.625-1.0859-0.9375-1.9375-0.9375-0.84375 0-1.4961 0.3125-1.9531 0.9375-0.44922 0.61719-0.67188 1.5117-0.67188 2.6875 0 1.1797 0.22266 2.0781 0.67188 2.7031 0.45703 0.61719 1.1094 0.92188 1.9531 0.92188zm-2.625-8.0156c0.53906-0.72656 1.1406-1.2656 1.7969-1.6094 0.66406-0.34375 1.4297-0.51562 2.2969-0.51562 1.5312 0 2.7852 0.60938 3.7656 1.8281 0.97656 1.2109 1.4688 2.7734 1.4688 4.6875 0 1.9062-0.49219 3.4688-1.4688 4.6875-0.98047 1.2188-2.2344 1.8281-3.7656 1.8281-0.86719 0-1.6328-0.17188-2.2969-0.51562-0.65625-0.34375-1.2578-0.87891-1.7969-1.6094v1.7969h-3.9688v-17.219h3.9688z"/>
  </symbol>
  <symbol id="g" overflow="visible">
   <path d="m0.28125-12.406h3.9531l3.3438 8.4219 2.8281-8.4219h3.9688l-5.2188 13.578c-0.52344 1.3828-1.1328 2.3477-1.8281 2.8906-0.69922 0.55078-1.6211 0.82812-2.7656 0.82812h-2.2969v-2.5938h1.25c0.66406 0 1.1484-0.10938 1.4531-0.32812 0.3125-0.21094 0.55078-0.59375 0.71875-1.1562l0.10938-0.34375z"/>
  </symbol>
  <symbol id="i" overflow="visible">
   <path d="m16.938-1.2344c-1.0625 0.52344-2.168 0.91406-3.3125 1.1719-1.1484 0.25781-2.3281 0.39062-3.5469 0.39062-2.75 0-4.9336-0.76953-6.5469-2.3125-1.6055-1.5391-2.4062-3.6289-2.4062-6.2656 0-2.6641 0.81641-4.7578 2.4531-6.2812 1.6445-1.5312 3.8906-2.2969 6.7344-2.2969 1.1016 0 2.1562 0.10547 3.1562 0.3125 1.0078 0.21094 1.9609 0.51562 2.8594 0.92188v3.4219c-0.92969-0.53125-1.8516-0.92188-2.7656-1.1719-0.90625-0.25781-1.8125-0.39062-2.7188-0.39062-1.6992 0-3.0117 0.47656-3.9375 1.4219-0.91797 0.94922-1.375 2.3047-1.375 4.0625 0 1.75 0.44141 3.1055 1.3281 4.0625 0.88281 0.94922 2.1445 1.4219 3.7812 1.4219 0.4375 0 0.84375-0.023437 1.2188-0.078125 0.38281-0.0625 0.72656-0.14844 1.0312-0.26562v-3.2188h-2.5938v-2.8438h6.6406z"/>
  </symbol>
  <symbol id="f" overflow="visible">
   <path d="m14.375-7.5469v7.5469h-3.9844v-5.7812c0-1.0703-0.027344-1.8125-0.078125-2.2188-0.054688-0.40625-0.13672-0.70312-0.25-0.89062-0.15625-0.25781-0.37109-0.45703-0.64062-0.59375-0.26172-0.14453-0.55859-0.21875-0.89062-0.21875-0.83594 0-1.4844 0.32031-1.9531 0.95312-0.46875 0.63672-0.70312 1.5234-0.70312 2.6562v6.0938h-3.9688v-12.406h3.9688v1.8281c0.59375-0.72656 1.2227-1.2656 1.8906-1.6094 0.67578-0.34375 1.4219-0.51562 2.2344-0.51562 1.4258 0 2.5078 0.44531 3.25 1.3281 0.75 0.875 1.125 2.1523 1.125 3.8281z"/>
  </symbol>
  <symbol id="t" overflow="visible">
   <path d="m2.0781-16.531h4.2656v6.0312l6.1406-6.0312h4.9531l-7.9688 7.8281 8.7812 8.7031h-5.3281l-6.5781-6.5156v6.5156h-4.2656z"/>
  </symbol>
  <symbol id="h" overflow="visible">
   <path d="m14.375-7.5469v7.5469h-3.9844v-5.75c0-1.0938-0.027344-1.8438-0.078125-2.25-0.054688-0.40625-0.13672-0.70312-0.25-0.89062-0.15625-0.25781-0.37109-0.45703-0.64062-0.59375-0.26172-0.14453-0.55859-0.21875-0.89062-0.21875-0.83594 0-1.4844 0.32031-1.9531 0.95312-0.46875 0.63672-0.70312 1.5234-0.70312 2.6562v6.0938h-3.9688v-17.219h3.9688v6.6406c0.59375-0.72656 1.2227-1.2656 1.8906-1.6094 0.67578-0.34375 1.4219-0.51562 2.2344-0.51562 1.4258 0 2.5078 0.44531 3.25 1.3281 0.75 0.875 1.125 2.1523 1.125 3.8281z"/>
  </symbol>
  <symbol id="a" overflow="visible">
   <path d="m7.7969-9.8594c-0.875 0-1.543 0.32031-2 0.95312-0.46094 0.625-0.6875 1.5312-0.6875 2.7188s0.22656 2.1016 0.6875 2.7344c0.45703 0.625 1.125 0.9375 2 0.9375 0.86328 0 1.5234-0.3125 1.9844-0.9375 0.45703-0.63281 0.6875-1.5469 0.6875-2.7344s-0.23047-2.0938-0.6875-2.7188c-0.46094-0.63281-1.1211-0.95312-1.9844-0.95312zm0-2.8438c2.1328 0 3.8008 0.57812 5 1.7344 1.207 1.1484 1.8125 2.7422 1.8125 4.7812 0 2.0312-0.60547 3.625-1.8125 4.7812-1.1992 1.1562-2.8672 1.7344-5 1.7344-2.1367 0-3.8086-0.57812-5.0156-1.7344-1.2109-1.1562-1.8125-2.75-1.8125-4.7812 0-2.0391 0.60156-3.6328 1.8125-4.7812 1.207-1.1562 2.8789-1.7344 5.0156-1.7344z"/>
  </symbol>
  <symbol id="s" overflow="visible">
   <path d="m2.0781-16.531h4.2656v13.312h7.4844v3.2188h-11.75z"/>
  </symbol>
  <symbol id="r" overflow="visible">
   <path d="m10.062-17.219v2.5938h-2.1875c-0.5625 0-0.96094 0.10547-1.1875 0.3125-0.21875 0.19922-0.32812 0.54688-0.32812 1.0469v0.85938h3.3906v2.8438h-3.3906v9.5625h-3.9531v-9.5625h-1.9688v-2.8438h1.9688v-0.85938c0-1.3438 0.375-2.3359 1.125-2.9844 0.75-0.64453 1.9141-0.96875 3.5-0.96875z"/>
  </symbol>
  <symbol id="q" overflow="visible">
   <path d="m13.391-10.344c0.5-0.75781 1.0938-1.3438 1.7812-1.75 0.69531-0.40625 1.457-0.60938 2.2812-0.60938 1.4258 0 2.5078 0.44531 3.25 1.3281 0.75 0.875 1.125 2.1523 1.125 3.8281v7.5469h-3.9844v-6.4688c0.007812-0.09375 0.015625-0.19141 0.015625-0.29688 0.007813-0.10156 0.015625-0.25 0.015625-0.4375 0-0.88281-0.13281-1.5195-0.39062-1.9062-0.26172-0.39453-0.67969-0.59375-1.25-0.59375-0.76172 0-1.3438 0.3125-1.75 0.9375-0.40625 0.61719-0.62109 1.5078-0.64062 2.6719v6.0938h-3.9844v-6.4688c0-1.375-0.12109-2.2539-0.35938-2.6406-0.23047-0.39453-0.64844-0.59375-1.25-0.59375-0.76172 0-1.3516 0.3125-1.7656 0.9375-0.40625 0.61719-0.60938 1.5078-0.60938 2.6719v6.0938h-4v-12.406h4v1.8281c0.47656-0.70703 1.0312-1.2383 1.6562-1.5938 0.63281-0.35156 1.332-0.53125 2.0938-0.53125 0.86328 0 1.625 0.21094 2.2812 0.625 0.65625 0.41797 1.1484 0.99609 1.4844 1.7344z"/>
  </symbol>
  <symbol id="p" overflow="visible">
   <path d="m2.0781-16.531h4.7656l6.0156 11.344v-11.344h4.0312v16.531h-4.75l-6.0156-11.344v11.344h-4.0469z"/>
  </symbol>
  <symbol id="o" overflow="visible">
   <path d="m1.7656-4.8281v-7.5781h3.9844v1.25c0 0.66797-0.007812 1.5117-0.015625 2.5312v2.0312c0 0.99219 0.023437 1.7109 0.078125 2.1562 0.050781 0.4375 0.14062 0.75781 0.26562 0.95312 0.16406 0.26172 0.37891 0.46484 0.64062 0.60938 0.25781 0.13672 0.55469 0.20312 0.89062 0.20312 0.83203 0 1.4844-0.31641 1.9531-0.95312 0.46875-0.63281 0.70312-1.5195 0.70312-2.6562v-6.125h3.9688v12.406h-3.9688v-1.7969c-0.59375 0.73047-1.2266 1.2656-1.8906 1.6094-0.66797 0.34375-1.4023 0.51562-2.2031 0.51562-1.4375 0-2.5312-0.4375-3.2812-1.3125-0.75-0.88281-1.125-2.1641-1.125-3.8438z"/>
  </symbol>
  <symbol id="n" overflow="visible">
   <path d="m2.0781-16.531h7.0781c2.1016 0 3.7188 0.46875 4.8438 1.4062 1.125 0.92969 1.6875 2.2578 1.6875 3.9844 0 1.7422-0.5625 3.0781-1.6875 4.0156-1.125 0.92969-2.7422 1.3906-4.8438 1.3906h-2.8125v5.7344h-4.2656zm4.2656 3.0938v4.6094h2.3594c0.82031 0 1.457-0.19531 1.9062-0.59375 0.45703-0.40625 0.6875-0.97656 0.6875-1.7188 0-0.73828-0.23047-1.3047-0.6875-1.7031-0.44922-0.39453-1.0859-0.59375-1.9062-0.59375z"/>
  </symbol>
  <symbol id="m" overflow="visible">
   <path d="m1.9062-12.406h3.9688v12.188c0 1.6562-0.40234 2.9219-1.2031 3.7969-0.80469 0.875-1.9609 1.3125-3.4688 1.3125h-1.9531v-2.5938h0.6875c0.75 0 1.2656-0.17188 1.5469-0.51562s0.42188-1.0117 0.42188-2zm0-4.8125h3.9688v3.2188h-3.9688z"/>
  </symbol>
  <symbol id="l" overflow="visible">
   <path d="m11.922-12.016v3.2344c-0.54297-0.36328-1.0859-0.63281-1.625-0.8125-0.54297-0.17578-1.1055-0.26562-1.6875-0.26562-1.1055 0-1.9648 0.32422-2.5781 0.96875-0.61719 0.64844-0.92188 1.5469-0.92188 2.7031s0.30469 2.0586 0.92188 2.7031c0.61328 0.64844 1.4727 0.96875 2.5781 0.96875 0.625 0 1.2109-0.085937 1.7656-0.26562 0.5625-0.1875 1.0781-0.46094 1.5469-0.82812v3.25c-0.61719 0.23047-1.2461 0.39844-1.8906 0.51562-0.63672 0.11328-1.2773 0.17188-1.9219 0.17188-2.2305 0-3.9805-0.57031-5.25-1.7188-1.2617-1.1562-1.8906-2.7539-1.8906-4.7969 0-2.0391 0.62891-3.6328 1.8906-4.7812 1.2695-1.1562 3.0195-1.7344 5.25-1.7344 0.65625 0 1.2969 0.058594 1.9219 0.17188 0.63281 0.11719 1.2656 0.28906 1.8906 0.51562z"/>
  </symbol>
 </defs>
 <g>
  <path d="m668.27 352.84-36.27-45.336-13.602-104.27-81.605-31.734-45.336-54.402-46.09-64.988-84.629-16.621-82.359 54.406-40.801 117.88-6.4023 27.73 41.73 44.34 27.449 32.922 54.625 21.25 9.0039 69.027 22.684 28.348 11.961 47.801 8.9453 32.832-0.003906 17.633h292.44v-54.402l-13.602-49.871zm-182.1-185.12-56.672-69.508-61.203-11.336-6.8086-9.8281 76.324-2.2656 58.18 92.184z"/>
  <path d="m389.44 514.46-8.3633-30.691-11.031-44.129-23.383-29.227-8.2656-63.398-49-19.059-30.125-36.137-44.762-47.566-55.805-28.34-55.258 59.301-7.0625 65.035 10.195 45.199-53.852 29.898-8.3125 55.434-43.105 57.484-1.3086 10.445h389.44z"/>
  <use y="606.710938" xlink:href="#u"/>
  <use x="16.636719" y="606.710938" xlink:href="#e"/>
  <use x="27.816406" y="606.710938" xlink:href="#b"/>
  <use x="43.1875" y="606.710938" xlink:href="#d"/>
  <use x="58.484375" y="606.710938" xlink:href="#c"/>
  <use x="69.320312" y="606.710938" xlink:href="#b"/>
  <use x="84.695312" y="606.710938" xlink:href="#k"/>
  <use x="108.8125" y="606.710938" xlink:href="#j"/>
  <use x="125.039062" y="606.710938" xlink:href="#g"/>
  <use x="147.707031" y="606.710938" xlink:href="#i"/>
  <use x="166.3125" y="606.710938" xlink:href="#d"/>
  <use x="181.609375" y="606.710938" xlink:href="#f"/>
  <use x="205.640625" y="606.710938" xlink:href="#t"/>
  <use x="223.207031" y="606.710938" xlink:href="#h"/>
  <use x="239.34375" y="606.710938" xlink:href="#a"/>
  <use x="254.917969" y="606.710938" xlink:href="#a"/>
  <use x="270.488281" y="606.710938" xlink:href="#f"/>
  <use x="294.519531" y="606.710938" xlink:href="#s"/>
  <use x="308.964844" y="606.710938" xlink:href="#d"/>
  <use x="324.261719" y="606.710938" xlink:href="#g"/>
  <use y="629.382812" xlink:href="#r"/>
  <use x="9.863281" y="629.382812" xlink:href="#e"/>
  <use x="21.042969" y="629.382812" xlink:href="#a"/>
  <use x="36.613281" y="629.382812" xlink:href="#q"/>
  <use x="68.125" y="629.382812" xlink:href="#c"/>
  <use x="78.960938" y="629.382812" xlink:href="#h"/>
  <use x="95.101562" y="629.382812" xlink:href="#b"/>
  <use x="118.367187" y="629.382812" xlink:href="#p"/>
  <use x="137.335938" y="629.382812" xlink:href="#a"/>
  <use x="152.910156" y="629.382812" xlink:href="#o"/>
  <use x="169.046875" y="629.382812" xlink:href="#f"/>
  <use x="193.078125" y="629.382812" xlink:href="#n"/>
  <use x="209.691406" y="629.382812" xlink:href="#e"/>
  <use x="220.871094" y="629.382812" xlink:href="#a"/>
  <use x="236.441406" y="629.382812" xlink:href="#m"/>
  <use x="244.214844" y="629.382812" xlink:href="#b"/>
  <use x="259.585938" y="629.382812" xlink:href="#l"/>
  <use x="273.023438" y="629.382812" xlink:href="#c"/>
 </g>
</svg>
