<?xml version="1.0" encoding="UTF-8"?>
<svg width="700pt" height="700pt" version="1.1" viewBox="0 0 700 700" xmlns="http://www.w3.org/2000/svg">
 <g>
  <path d="m525 35h-260.4c-28.406 0-55.648 11.285-75.734 31.367-20.082 20.086-31.367 47.328-31.367 75.734v260.4c0 4.6406 1.8438 9.0938 5.125 12.375s7.7344 5.125 12.375 5.125h149.45c-12.504 21.656-12.504 48.344 0 70h-149.45c-9.2812 0-18.184-3.6875-24.75-10.25-6.5625-6.5664-10.25-15.469-10.25-24.75 0-6.2539-3.3359-12.031-8.75-15.156s-12.086-3.125-17.5 0-8.75 8.9023-8.75 15.156c0 18.566 7.375 36.371 20.504 49.496 13.125 13.129 30.93 20.504 49.496 20.504h210c28.008-0.55078 54.688-12.051 74.316-32.039 19.629-19.988 30.645-46.871 30.684-74.887v-313.07c0-9.2812 3.6875-18.184 10.25-24.75 6.5664-6.5625 15.469-10.25 24.75-10.25s18.184 3.6875 24.75 10.25c6.5625 6.5664 10.25 15.469 10.25 24.75s-3.6875 18.184-10.25 24.75c-6.5664 6.5625-15.469 10.25-24.75 10.25-6.2539 0-12.031 3.3359-15.156 8.75s-3.125 12.086 0 17.5 8.9023 8.75 15.156 8.75c25.008 0 48.117-13.344 60.621-35s12.504-48.344 0-70-35.613-35-60.621-35zm-70 70v312.9c0.003906 18.941-7.4492 37.125-20.746 50.617-13.293 13.492-31.363 21.207-50.305 21.484-12.504-0.1875-23.957-7.0312-30.047-17.953-6.0898-10.926-5.8906-24.266 0.52344-35 6.4141-10.738 18.07-17.234 30.574-17.047 6.2539 0 12.031-3.3359 15.156-8.75s3.125-12.086 0-17.5-8.9023-8.75-15.156-8.75h-192.5v-242.9c0.046875-19.109 7.6562-37.422 21.168-50.934s31.824-21.121 50.934-21.168h200.2c-6.3633 10.57-9.75 22.664-9.8008 35z"/>
  <path d="m227.5 157.5c0 4.6406 1.8438 9.0938 5.125 12.375s7.7344 5.125 12.375 5.125h157.5c6.2539 0 12.031-3.3359 15.156-8.75s3.125-12.086 0-17.5-8.9023-8.75-15.156-8.75h-157.5c-4.6406 0-9.0938 1.8438-12.375 5.125s-5.125 7.7344-5.125 12.375z"/>
  <path d="m402.5 210h-157.5c-6.2539 0-12.031 3.3359-15.156 8.75s-3.125 12.086 0 17.5 8.9023 8.75 15.156 8.75h157.5c6.2539 0 12.031-3.3359 15.156-8.75s3.125-12.086 0-17.5-8.9023-8.75-15.156-8.75z"/>
  <path d="m402.5 280h-157.5c-6.2539 0-12.031 3.3359-15.156 8.75s-3.125 12.086 0 17.5 8.9023 8.75 15.156 8.75h157.5c6.2539 0 12.031-3.3359 15.156-8.75s3.125-12.086 0-17.5-8.9023-8.75-15.156-8.75z"/>
 </g>
</svg>
